REM DIRINDEX 1\2,1\3
REM DIRNAME cjc039,folder01,folder02
TITLE ""
FILE "0161-0200.mp3" MP3
  TRACK 01 AUDIO
    TITLE "0:"
    INDEX 01 00:00:00
  TRACK 02 AUDIO
    TITLE "2:cjc039_0161"
    INDEX 01 00:00:27
  TRACK 03 AUDIO
    TITLE "0:"
    INDEX 01 00:01:62
  TRACK 04 AUDIO
    TITLE "2:cjc039_0162"
    INDEX 01 00:02:36
  TRACK 05 AUDIO
    TITLE "0:"
    INDEX 01 00:03:74
  TRACK 06 AUDIO
    TITLE "2:cjc039_0163"
    INDEX 01 00:04:56
  TRACK 07 AUDIO
    TITLE "0:"
    INDEX 01 00:06:18
  TRACK 08 AUDIO
    TITLE "2:cjc039_0164"
    INDEX 01 00:06:69
  TRACK 09 AUDIO
    TITLE "0:"
    INDEX 01 00:08:38
  TRACK 10 AUDIO
    TITLE "2:cjc039_0165"
    INDEX 01 00:09:16
  TRACK 11 AUDIO
    TITLE "0:"
    INDEX 01 00:10:57
  TRACK 12 AUDIO
    TITLE "2:cjc039_0166"
    INDEX 01 00:11:21
  TRACK 13 AUDIO
    TITLE "0:"
    INDEX 01 00:12:42
  TRACK 14 AUDIO
    TITLE "2:cjc039_0167"
    INDEX 01 00:13:14
  TRACK 15 AUDIO
    TITLE "0:"
    INDEX 01 00:14:56
  TRACK 16 AUDIO
    TITLE "2:cjc039_0168"
    INDEX 01 00:15:32
  TRACK 17 AUDIO
    TITLE "0:"
    INDEX 01 00:16:53
  TRACK 18 AUDIO
    TITLE "2:cjc039_0169"
    INDEX 01 00:17:25
  TRACK 19 AUDIO
    TITLE "0:"
    INDEX 01 00:19:01
  TRACK 20 AUDIO
    TITLE "2:cjc039_0170"
    INDEX 01 00:19:52
  TRACK 21 AUDIO
    TITLE "0:"
    INDEX 01 00:21:11
  TRACK 22 AUDIO
    TITLE "2:cjc039_0171"
    INDEX 01 00:21:58
  TRACK 23 AUDIO
    TITLE "0:"
    INDEX 01 00:23:03
  TRACK 24 AUDIO
    TITLE "2:cjc039_0172"
    INDEX 01 00:23:55
  TRACK 25 AUDIO
    TITLE "0:"
    INDEX 01 00:24:74
  TRACK 26 AUDIO
    TITLE "2:cjc039_0173"
    INDEX 01 00:25:54
  TRACK 27 AUDIO
    TITLE "0:"
    INDEX 01 00:27:02
  TRACK 28 AUDIO
    TITLE "2:cjc039_0174"
    INDEX 01 00:27:49
  TRACK 29 AUDIO
    TITLE "0:"
    INDEX 01 00:29:05
  TRACK 30 AUDIO
    TITLE "2:cjc039_0175"
    INDEX 01 00:29:60
  TRACK 31 AUDIO
    TITLE "0:"
    INDEX 01 00:31:06
  TRACK 32 AUDIO
    TITLE "2:cjc039_0176"
    INDEX 01 00:31:55
  TRACK 33 AUDIO
    TITLE "0:"
    INDEX 01 00:33:01
  TRACK 34 AUDIO
    TITLE "2:cjc039_0177"
    INDEX 01 00:33:52
  TRACK 35 AUDIO
    TITLE "0:"
    INDEX 01 00:35:00
  TRACK 36 AUDIO
    TITLE "2:cjc039_0178"
    INDEX 01 00:35:47
  TRACK 37 AUDIO
    TITLE "0:"
    INDEX 01 00:37:20
  TRACK 38 AUDIO
    TITLE "2:cjc039_0179"
    INDEX 01 00:37:73
  TRACK 39 AUDIO
    TITLE "0:"
    INDEX 01 00:39:47
  TRACK 40 AUDIO
    TITLE "2:cjc039_0180"
    INDEX 01 00:40:24
  TRACK 41 AUDIO
    TITLE "0:"
    INDEX 01 00:41:69
  TRACK 42 AUDIO
    TITLE "2:cjc039_0181"
    INDEX 01 00:42:47
  TRACK 43 AUDIO
    TITLE "0:"
    INDEX 01 00:43:66
  TRACK 44 AUDIO
    TITLE "2:cjc039_0182"
    INDEX 01 00:44:42
  TRACK 45 AUDIO
    TITLE "0:"
    INDEX 01 00:46:00
  TRACK 46 AUDIO
    TITLE "2:cjc039_0183"
    INDEX 01 00:46:51
  TRACK 47 AUDIO
    TITLE "0:"
    INDEX 01 00:48:18
  TRACK 48 AUDIO
    TITLE "2:cjc039_0184"
    INDEX 01 00:48:65
  TRACK 49 AUDIO
    TITLE "0:"
    INDEX 01 00:50:17
  TRACK 50 AUDIO
    TITLE "2:cjc039_0185"
    INDEX 01 00:50:68
  TRACK 51 AUDIO
    TITLE "0:"
    INDEX 01 00:52:36
  TRACK 52 AUDIO
    TITLE "2:cjc039_0186"
    INDEX 01 00:53:15
  TRACK 53 AUDIO
    TITLE "0:"
    INDEX 01 00:54:60
  TRACK 54 AUDIO
    TITLE "2:cjc039_0187"
    INDEX 01 00:55:36
  TRACK 55 AUDIO
    TITLE "0:"
    INDEX 01 00:57:05
  TRACK 56 AUDIO
    TITLE "2:cjc039_0188"
    INDEX 01 00:57:58
  TRACK 57 AUDIO
    TITLE "0:"
    INDEX 01 00:58:71
  TRACK 58 AUDIO
    TITLE "2:cjc039_0189"
    INDEX 01 00:59:53
  TRACK 59 AUDIO
    TITLE "0:"
    INDEX 01 01:00:68
  TRACK 60 AUDIO
    TITLE "2:cjc039_0190"
    INDEX 01 01:01:46
  TRACK 61 AUDIO
    TITLE "0:"
    INDEX 01 01:03:06
  TRACK 62 AUDIO
    TITLE "2:cjc039_0191"
    INDEX 01 01:03:57
  TRACK 63 AUDIO
    TITLE "0:"
    INDEX 01 01:05:11
  TRACK 64 AUDIO
    TITLE "2:cjc039_0192"
    INDEX 01 01:05:64
  TRACK 65 AUDIO
    TITLE "0:"
    INDEX 01 01:07:17
  TRACK 66 AUDIO
    TITLE "2:cjc039_0193"
    INDEX 01 01:07:70
  TRACK 67 AUDIO
    TITLE "0:"
    INDEX 01 01:09:20
  TRACK 68 AUDIO
    TITLE "2:cjc039_0194"
    INDEX 01 01:09:71
  TRACK 69 AUDIO
    TITLE "0:"
    INDEX 01 01:11:43
  TRACK 70 AUDIO
    TITLE "2:cjc039_0195"
    INDEX 01 01:12:24
  TRACK 71 AUDIO
    TITLE "0:"
    INDEX 01 01:13:44
  TRACK 72 AUDIO
    TITLE "2:cjc039_0196"
    INDEX 01 01:14:14
  TRACK 73 AUDIO
    TITLE "0:"
    INDEX 01 01:15:50
  TRACK 74 AUDIO
    TITLE "2:cjc039_0197"
    INDEX 01 01:16:24
  TRACK 75 AUDIO
    TITLE "0:"
    INDEX 01 01:17:59
  TRACK 76 AUDIO
    TITLE "2:cjc039_0198"
    INDEX 01 01:18:33
  TRACK 77 AUDIO
    TITLE "0:"
    INDEX 01 01:20:02
  TRACK 78 AUDIO
    TITLE "2:cjc039_0199"
    INDEX 01 01:20:51
  TRACK 79 AUDIO
    TITLE "0:"
    INDEX 01 01:22:01
  TRACK 80 AUDIO
    TITLE "2:cjc039_0200"
    INDEX 01 01:22:52
  TRACK 81 AUDIO
    TITLE "0:"
    INDEX 01 01:24:02
